<svg width="22" height="21" viewBox="0 0 22 21" fill="none" xmlns="http://www.w3.org/2000/svg">
<path fill-rule="evenodd" clip-rule="evenodd" d="M8.85013 17.8201H0.973877C0.456377 17.8201 0.036377 17.3796 0.036377 16.8368C0.036377 16.2941 0.456377 15.8536 0.973877 15.8536H8.85013C9.36763 15.8536 9.78763 16.2941 9.78763 16.8368C9.78763 17.3796 9.36763 17.8201 8.85013 17.8201" fill="black"/>
<path fill-rule="evenodd" clip-rule="evenodd" d="M20.2386 5.11304H12.3636C11.8461 5.11304 11.4261 4.67253 11.4261 4.12976C11.4261 3.58699 11.8461 3.14648 12.3636 3.14648H20.2386C20.7561 3.14648 21.1761 3.58699 21.1761 4.12976C21.1761 4.67253 20.7561 5.11304 20.2386 5.11304" fill="black"/>
<mask id="mask0_1063_500" style="mask-type:luminance" maskUnits="userSpaceOnUse" x="0" y="0" width="8" height="9">
<path fill-rule="evenodd" clip-rule="evenodd" d="M0 0H7.78225V8.11741H0V0Z" fill="white"/>
</mask>
<g mask="url(#mask0_1063_500)">
<path fill-rule="evenodd" clip-rule="evenodd" d="M3.89101 1.96603C2.77976 1.96603 1.87476 2.90473 1.87476 4.05975C1.87476 5.21346 2.77976 6.15085 3.89101 6.15085C5.00351 6.15085 5.90726 5.21346 5.90726 4.05975C5.90726 2.90473 5.00351 1.96603 3.89101 1.96603M3.89101 8.1174C1.74601 8.1174 -0.000244141 6.29769 -0.000244141 4.05975C-0.000244141 1.82181 1.74601 -0.000526428 3.89101 -0.000526428C6.03726 -0.000526428 7.78225 1.82181 7.78225 4.05975C7.78225 6.29769 6.03726 8.1174 3.89101 8.1174" fill="black"/>
</g>
<path fill-rule="evenodd" clip-rule="evenodd" d="M17.9846 14.6936C16.8721 14.6936 15.9671 15.6323 15.9671 16.786C15.9671 17.941 16.8721 18.8784 17.9846 18.8784C19.0959 18.8784 19.9996 17.941 19.9996 16.786C19.9996 15.6323 19.0959 14.6936 17.9846 14.6936M17.9846 20.8449C15.8384 20.8449 14.0921 19.0239 14.0921 16.786C14.0921 14.548 15.8384 12.727 17.9846 12.727C20.1296 12.727 21.8746 14.548 21.8746 16.786C21.8746 19.0239 20.1296 20.8449 17.9846 20.8449" fill="black"/>
</svg>
