<svg width="82" height="64" viewBox="0 0 82 64" fill="none" xmlns="http://www.w3.org/2000/svg">
<path d="M72 14.4136V50.2485L65.8 53.832M72 14.4136L65.8 10.8301L41 25.1641M72 14.4136L47.2 28.7476M65.8 53.832V25.1641L53.4 32.3311L59.6 35.9146M65.8 53.832L34.8 35.9146L10 50.2485M65.8 53.832L22.4 28.7476V35.9146V21.5806L59.6 43.0815M59.6 35.9146L34.8 21.5806M59.6 35.9146L16.2 10.8301M59.6 28.7476V43.0815M59.6 43.0815L34.8 28.7476M16.2 10.8301L10 14.4136V50.2485M16.2 10.8301V39.498L28.6 32.3311M10 50.2485L16.2 53.832L41 39.498" stroke="#2253BD" stroke-width="5" stroke-linecap="round" stroke-linejoin="round"/>
</svg>
